<mxfile host="app.diagrams.net" modified="2024-06-12T09:56:30.162Z" agent="Mozilla/5.0 (Macintosh; Intel Mac OS X 10_15_7) AppleWebKit/537.36 (KHTML, like Gecko) Chrome/125.0.0.0 Safari/537.36" etag="1CpImMGLG1Z88FNbTfnN" version="24.5.3" type="github">
  <diagram name="Page-1" id="b520641d-4fe3-3701-9064-5fc419738815">
    <mxGraphModel dx="2466" dy="727" grid="1" gridSize="10" guides="1" tooltips="1" connect="1" arrows="1" fold="1" page="1" pageScale="1" pageWidth="1100" pageHeight="850" background="none" math="0" shadow="0">
      <root>
        <mxCell id="0" />
        <mxCell id="1" parent="0" />
        <mxCell id="bwXNWcVWL3vOoplr9R7--21" style="edgeStyle=orthogonalEdgeStyle;rounded=0;orthogonalLoop=1;jettySize=auto;html=1;exitX=1;exitY=0.5;exitDx=0;exitDy=0;" edge="1" parent="1" source="bwXNWcVWL3vOoplr9R7--17" target="bwXNWcVWL3vOoplr9R7--20">
          <mxGeometry relative="1" as="geometry" />
        </mxCell>
        <mxCell id="bwXNWcVWL3vOoplr9R7--17" value="Mysql：app_info" style="whiteSpace=wrap;html=1;fontFamily=Verdana;rounded=0;shadow=0;comic=0;labelBackgroundColor=none;strokeWidth=2;" vertex="1" parent="1">
          <mxGeometry x="120" y="730" width="140" height="60" as="geometry" />
        </mxCell>
        <mxCell id="bwXNWcVWL3vOoplr9R7--2" style="edgeStyle=orthogonalEdgeStyle;html=1;labelBackgroundColor=none;startFill=0;startSize=8;endFill=1;endSize=8;fontFamily=Verdana;fontSize=12;" edge="1" parent="1">
          <mxGeometry relative="1" as="geometry">
            <mxPoint x="120" y="764.5" as="targetPoint" />
            <mxPoint x="-40" y="764.5" as="sourcePoint" />
          </mxGeometry>
        </mxCell>
        <mxCell id="bwXNWcVWL3vOoplr9R7--3" value="业务开通数据" style="text;html=1;align=center;verticalAlign=middle;resizable=0;points=[];autosize=1;strokeColor=none;fillColor=none;" vertex="1" parent="1">
          <mxGeometry x="-30" y="738" width="100" height="30" as="geometry" />
        </mxCell>
        <mxCell id="bwXNWcVWL3vOoplr9R7--5" value="canal 监听 binlog" style="text;html=1;align=center;verticalAlign=middle;resizable=0;points=[];autosize=1;strokeColor=none;fillColor=none;" vertex="1" parent="1">
          <mxGeometry x="290" y="730" width="110" height="30" as="geometry" />
        </mxCell>
        <mxCell id="bwXNWcVWL3vOoplr9R7--8" value="flink 解析数据、过滤" style="text;html=1;align=center;verticalAlign=middle;resizable=0;points=[];autosize=1;strokeColor=none;fillColor=none;" vertex="1" parent="1">
          <mxGeometry x="690" y="730" width="130" height="30" as="geometry" />
        </mxCell>
        <mxCell id="bwXNWcVWL3vOoplr9R7--10" value="" style="shape=curlyBracket;whiteSpace=wrap;html=1;rounded=1;flipH=1;labelPosition=right;verticalLabelPosition=middle;align=left;verticalAlign=middle;rotation=90;" vertex="1" parent="1">
          <mxGeometry x="282.5" y="587.5" width="10" height="435" as="geometry" />
        </mxCell>
        <mxCell id="bwXNWcVWL3vOoplr9R7--11" value="家辉侧" style="text;html=1;align=center;verticalAlign=middle;resizable=0;points=[];autosize=1;strokeColor=none;fillColor=none;" vertex="1" parent="1">
          <mxGeometry x="290" y="810" width="60" height="30" as="geometry" />
        </mxCell>
        <mxCell id="bwXNWcVWL3vOoplr9R7--12" value="" style="shape=curlyBracket;whiteSpace=wrap;html=1;rounded=1;flipH=1;labelPosition=right;verticalLabelPosition=middle;align=left;verticalAlign=middle;rotation=90;" vertex="1" parent="1">
          <mxGeometry x="770" y="555" width="10" height="500" as="geometry" />
        </mxCell>
        <mxCell id="bwXNWcVWL3vOoplr9R7--13" value="我们" style="text;html=1;align=center;verticalAlign=middle;resizable=0;points=[];autosize=1;strokeColor=none;fillColor=none;" vertex="1" parent="1">
          <mxGeometry x="750" y="810" width="50" height="30" as="geometry" />
        </mxCell>
        <mxCell id="bwXNWcVWL3vOoplr9R7--15" style="edgeStyle=orthogonalEdgeStyle;html=1;labelBackgroundColor=none;startFill=0;startSize=8;endFill=1;endSize=8;fontFamily=Verdana;fontSize=12;" edge="1" parent="1">
          <mxGeometry relative="1" as="geometry">
            <mxPoint x="120" y="896.5" as="targetPoint" />
            <mxPoint x="-40" y="896.5" as="sourcePoint" />
          </mxGeometry>
        </mxCell>
        <mxCell id="bwXNWcVWL3vOoplr9R7--16" value="业务开通数据" style="text;html=1;align=center;verticalAlign=middle;resizable=0;points=[];autosize=1;strokeColor=none;fillColor=none;" vertex="1" parent="1">
          <mxGeometry x="-30" y="870" width="100" height="30" as="geometry" />
        </mxCell>
        <mxCell id="bwXNWcVWL3vOoplr9R7--23" value="" style="edgeStyle=orthogonalEdgeStyle;rounded=0;orthogonalLoop=1;jettySize=auto;html=1;" edge="1" parent="1" source="bwXNWcVWL3vOoplr9R7--20" target="bwXNWcVWL3vOoplr9R7--22">
          <mxGeometry relative="1" as="geometry" />
        </mxCell>
        <mxCell id="bwXNWcVWL3vOoplr9R7--20" value="&lt;span style=&quot;text-wrap: nowrap;&quot;&gt;Kafka Topic:&lt;/span&gt;&lt;br style=&quot;text-wrap: nowrap;&quot;&gt;&lt;span style=&quot;text-wrap: nowrap;&quot;&gt;databus_CRM_canal_business-open&lt;/span&gt;" style="whiteSpace=wrap;html=1;fontFamily=Verdana;rounded=0;shadow=0;comic=0;labelBackgroundColor=none;strokeWidth=2;" vertex="1" parent="1">
          <mxGeometry x="425" y="730" width="250" height="60" as="geometry" />
        </mxCell>
        <mxCell id="bwXNWcVWL3vOoplr9R7--22" value="holo:&lt;br&gt;&lt;span style=&quot;text-wrap: nowrap;&quot;&gt;ods_event_jjz_open_app_info&lt;/span&gt;" style="whiteSpace=wrap;html=1;fontFamily=Verdana;rounded=0;shadow=0;comic=0;labelBackgroundColor=none;strokeWidth=2;" vertex="1" parent="1">
          <mxGeometry x="840" y="730" width="210" height="60" as="geometry" />
        </mxCell>
        <mxCell id="bwXNWcVWL3vOoplr9R7--24" style="edgeStyle=orthogonalEdgeStyle;html=1;labelBackgroundColor=none;startFill=0;startSize=8;endFill=1;endSize=8;fontFamily=Verdana;fontSize=12;" edge="1" parent="1" source="bwXNWcVWL3vOoplr9R7--22">
          <mxGeometry relative="1" as="geometry">
            <mxPoint x="1140" y="760" as="targetPoint" />
            <mxPoint x="1060" y="760" as="sourcePoint" />
          </mxGeometry>
        </mxCell>
        <mxCell id="bwXNWcVWL3vOoplr9R7--25" value="项目 SQL 统计新增开通指标" style="text;html=1;align=center;verticalAlign=middle;resizable=0;points=[];autosize=1;strokeColor=none;fillColor=none;" vertex="1" parent="1">
          <mxGeometry x="1140" y="745" width="170" height="30" as="geometry" />
        </mxCell>
        <mxCell id="bwXNWcVWL3vOoplr9R7--28" value="" style="edgeStyle=orthogonalEdgeStyle;rounded=0;orthogonalLoop=1;jettySize=auto;html=1;" edge="1" parent="1" source="bwXNWcVWL3vOoplr9R7--26" target="bwXNWcVWL3vOoplr9R7--27">
          <mxGeometry relative="1" as="geometry" />
        </mxCell>
        <mxCell id="bwXNWcVWL3vOoplr9R7--26" value="Mysql：app_info" style="whiteSpace=wrap;html=1;fontFamily=Verdana;rounded=0;shadow=0;comic=0;labelBackgroundColor=none;strokeWidth=2;" vertex="1" parent="1">
          <mxGeometry x="120" y="870" width="140" height="60" as="geometry" />
        </mxCell>
        <mxCell id="bwXNWcVWL3vOoplr9R7--27" value="holo:&lt;br&gt;&lt;span style=&quot;text-wrap: nowrap;&quot;&gt;ods_event_jjz_open_app_info&lt;/span&gt;" style="whiteSpace=wrap;html=1;fontFamily=Verdana;rounded=0;shadow=0;comic=0;labelBackgroundColor=none;strokeWidth=2;" vertex="1" parent="1">
          <mxGeometry x="420" y="870" width="230" height="60" as="geometry" />
        </mxCell>
        <mxCell id="bwXNWcVWL3vOoplr9R7--29" value="dataworks 实时同步任务" style="text;html=1;align=center;verticalAlign=middle;resizable=0;points=[];autosize=1;strokeColor=none;fillColor=none;" vertex="1" parent="1">
          <mxGeometry x="260" y="870" width="150" height="30" as="geometry" />
        </mxCell>
        <mxCell id="bwXNWcVWL3vOoplr9R7--30" style="edgeStyle=orthogonalEdgeStyle;html=1;labelBackgroundColor=none;startFill=0;startSize=8;endFill=1;endSize=8;fontFamily=Verdana;fontSize=12;" edge="1" parent="1">
          <mxGeometry relative="1" as="geometry">
            <mxPoint x="740" y="900" as="targetPoint" />
            <mxPoint x="650" y="900" as="sourcePoint" />
          </mxGeometry>
        </mxCell>
        <mxCell id="bwXNWcVWL3vOoplr9R7--31" value="项目 SQL 统计新增开通指标" style="text;html=1;align=center;verticalAlign=middle;resizable=0;points=[];autosize=1;strokeColor=none;fillColor=none;" vertex="1" parent="1">
          <mxGeometry x="740" y="885" width="170" height="30" as="geometry" />
        </mxCell>
        <mxCell id="bwXNWcVWL3vOoplr9R7--32" value="" style="shape=curlyBracket;whiteSpace=wrap;html=1;rounded=1;flipH=1;labelPosition=right;verticalLabelPosition=middle;align=left;verticalAlign=middle;rotation=90;" vertex="1" parent="1">
          <mxGeometry x="312.5" y="730" width="10" height="435" as="geometry" />
        </mxCell>
        <mxCell id="bwXNWcVWL3vOoplr9R7--33" value="家辉侧" style="text;html=1;align=center;verticalAlign=middle;resizable=0;points=[];autosize=1;strokeColor=none;fillColor=none;" vertex="1" parent="1">
          <mxGeometry x="320" y="952.5" width="60" height="30" as="geometry" />
        </mxCell>
      </root>
    </mxGraphModel>
  </diagram>
</mxfile>
